<svg xmlns="http://www.w3.org/2000/svg" xmlns:xlink="http://www.w3.org/1999/xlink" width="5000" zoomAndPan="magnify" viewBox="0 0 3750 3749.999967" height="5000" preserveAspectRatio="xMidYMid meet" version="1.0"><defs><clipPath id="0ad96cd281"><path d="M 427.585938 376 L 3322.585938 376 L 3322.585938 3375 L 427.585938 3375 Z M 427.585938 376 " clip-rule="nonzero"/></clipPath></defs><g clip-path="url(#0ad96cd281)"><path fill="#d4af37" d="M 472.449219 3318.152344 C 583.492188 3172.03125 688.023438 2979.847656 728.441406 2847.5 C 826.8125 2525.402344 866.648438 2092.144531 852.71875 1495.890625 C 840.191406 959.761719 802.847656 711.816406 701.9375 494.800781 L 669.761719 425.601562 L 1302.636719 425.601562 L 1302.636719 3378.125 L 426.871094 3378.125 Z M 2447.023438 3181.820312 C 2347.335938 2966.246094 2203.308594 2726.160156 1922.460938 2307.394531 L 1738.332031 2032.839844 L 1464.957031 2021.808594 L 1459.867188 1906.476562 L 1454.78125 1791.144531 L 1963.535156 1791.144531 L 2243.894531 2118.6875 C 2398.09375 2298.839844 2688.953125 2637.226562 2890.246094 2870.660156 C 3091.539062 3104.09375 3271.648438 3313.769531 3290.488281 3336.605469 L 3324.742188 3378.125 L 2537.800781 3378.125 Z M 1456.414062 1495.890625 L 1456.414062 1385.171875 L 1900.648438 1385.171875 L 1900.648438 1606.609375 L 1456.414062 1606.609375 Z M 2020.25 1479.96875 L 2020.25 1372.324219 L 2092.71875 1337.226562 C 2384.738281 1195.800781 2646.195312 915.472656 2784.941406 595.050781 C 2818.703125 517.078125 2847.882812 450.847656 2849.785156 447.875 C 2855.71875 438.585938 3238.480469 369.621094 3245.003906 376.667969 C 3248.402344 380.339844 3215.929688 459.402344 3172.839844 552.363281 C 2973.171875 983.144531 2583.574219 1347.808594 2105.648438 1551.261719 L 2020.25 1587.617188 Z M 2020.25 1479.96875 " fill-opacity="1" fill-rule="nonzero"/></g></svg>