<svg xmlns="http://www.w3.org/2000/svg" xmlns:xlink="http://www.w3.org/1999/xlink" width="500" zoomAndPan="magnify" viewBox="0 0 375 149.999998" height="200" preserveAspectRatio="xMidYMid meet" version="1.0"><defs><g/><clipPath id="1c76cc4722"><path d="M 1.375 20.546875 L 38.882812 20.546875 L 38.882812 59.496094 L 1.375 59.496094 Z M 1.375 20.546875 " clip-rule="nonzero"/></clipPath><clipPath id="12c119aa86"><path d="M 104 0.761719 L 367 0.761719 L 367 79.238281 L 104 79.238281 Z M 104 0.761719 " clip-rule="nonzero"/></clipPath><clipPath id="dd38c66631"><path d="M 0.320312 19 L 35 19 L 35 60 L 0.320312 60 Z M 0.320312 19 " clip-rule="nonzero"/></clipPath><clipPath id="a1d71a434b"><rect x="0" width="263" y="0" height="80"/></clipPath><clipPath id="e0c9112205"><rect x="0" width="367" y="0" height="80"/></clipPath></defs><g transform="matrix(1, 0, 0, 1, 8, 35)"><g clip-path="url(#e0c9112205)"><g clip-path="url(#1c76cc4722)"><path fill="#d4af37" d="M 1.957031 58.714844 C 3.398438 56.820312 4.753906 54.328125 5.277344 52.613281 C 6.550781 48.433594 7.070312 42.816406 6.886719 35.082031 C 6.726562 28.132812 6.242188 24.914062 4.933594 22.101562 L 4.515625 21.203125 L 12.722656 21.203125 L 12.722656 59.492188 L 1.367188 59.492188 Z M 27.5625 56.945312 C 26.269531 54.152344 24.402344 51.039062 20.761719 45.605469 L 18.371094 42.046875 L 16.601562 41.976562 L 14.828125 41.902344 L 14.761719 40.40625 L 14.695312 38.914062 L 21.292969 38.914062 L 24.929688 43.160156 C 26.929688 45.496094 30.699219 49.882812 33.3125 52.910156 C 35.921875 55.9375 38.257812 58.65625 38.5 58.953125 L 38.945312 59.492188 L 28.742188 59.492188 Z M 14.71875 35.082031 L 14.71875 33.648438 L 20.476562 33.648438 L 20.476562 36.519531 L 14.71875 36.519531 Z M 22.027344 34.878906 L 22.027344 33.480469 L 22.96875 33.027344 C 26.753906 31.191406 30.144531 27.558594 31.945312 23.402344 C 32.382812 22.390625 32.761719 21.53125 32.785156 21.492188 C 32.863281 21.371094 37.828125 20.476562 37.910156 20.570312 C 37.957031 20.617188 37.535156 21.640625 36.976562 22.847656 C 34.386719 28.433594 29.332031 33.164062 23.136719 35.800781 L 22.027344 36.273438 Z M 22.027344 34.878906 " fill-opacity="1" fill-rule="nonzero"/></g><g clip-path="url(#12c119aa86)"><g transform="matrix(1, 0, 0, 1, 104, -0.000000000000007105)"><g clip-path="url(#a1d71a434b)"><g clip-path="url(#dd38c66631)"><g fill="#d4af37" fill-opacity="1"><g transform="translate(0.438276, 59.412796)"><g><path d="M 19.515625 -39.8125 L 33.84375 0 L 28.546875 0 L 19.734375 -25.09375 C 19.140625 -26.800781 18.59375 -28.4375 18.09375 -30 C 17.59375 -31.5625 17.175781 -33.015625 16.84375 -34.359375 C 16.539062 -33.015625 16.144531 -31.5625 15.65625 -30 C 15.175781 -28.4375 14.640625 -26.820312 14.046875 -25.15625 L 5.296875 0 L 0 0 L 14.28125 -39.8125 Z M 19.515625 -39.8125 "/></g></g></g></g><g fill="#d4af37" fill-opacity="1"><g transform="translate(61.952407, 59.412796)"><g/></g></g><g fill="#d4af37" fill-opacity="1"><g transform="translate(104.449074, 59.412796)"><g><path d="M 34.859375 0 L 29.78125 0 L 9.375 -30.953125 L 9.375 0 L 4.296875 0 L 4.296875 -38.921875 L 9.375 -38.921875 L 29.78125 -8.03125 L 29.78125 -38.921875 L 34.859375 -38.921875 Z M 34.859375 0 "/></g></g></g><g fill="#d4af37" fill-opacity="1"><g transform="translate(171.261324, 59.412796)"><g/></g></g><g fill="#d4af37" fill-opacity="1"><g transform="translate(213.757992, 59.412796)"><g><path d="M 21.921875 0.390625 C 18.304688 0.390625 15.007812 -0.453125 12.03125 -2.140625 C 9.0625 -3.835938 6.710938 -6.203125 4.984375 -9.234375 C 3.253906 -12.265625 2.390625 -15.675781 2.390625 -19.46875 C 2.390625 -23.257812 3.253906 -26.664062 4.984375 -29.6875 C 6.710938 -32.71875 9.0625 -35.078125 12.03125 -36.765625 C 15.007812 -38.460938 18.304688 -39.3125 21.921875 -39.3125 C 25.554688 -39.3125 28.859375 -38.460938 31.828125 -36.765625 C 34.804688 -35.078125 37.148438 -32.726562 38.859375 -29.71875 C 40.578125 -26.707031 41.4375 -23.289062 41.4375 -19.46875 C 41.4375 -15.632812 40.578125 -12.210938 38.859375 -9.203125 C 37.148438 -6.191406 34.804688 -3.835938 31.828125 -2.140625 C 28.859375 -0.453125 25.554688 0.390625 21.921875 0.390625 Z M 21.921875 -4.015625 C 24.628906 -4.015625 27.070312 -4.644531 29.25 -5.90625 C 31.425781 -7.175781 33.132812 -8.976562 34.375 -11.3125 C 35.625 -13.65625 36.25 -16.375 36.25 -19.46875 C 36.25 -22.582031 35.625 -25.300781 34.375 -27.625 C 33.132812 -29.957031 31.4375 -31.753906 29.28125 -33.015625 C 27.125 -34.273438 24.671875 -34.90625 21.921875 -34.90625 C 19.171875 -34.90625 16.71875 -34.273438 14.5625 -33.015625 C 12.40625 -31.753906 10.703125 -29.957031 9.453125 -27.625 C 8.203125 -25.300781 7.578125 -22.582031 7.578125 -19.46875 C 7.578125 -16.375 8.203125 -13.65625 9.453125 -11.3125 C 10.703125 -8.976562 12.410156 -7.175781 14.578125 -5.90625 C 16.753906 -4.644531 19.203125 -4.015625 21.921875 -4.015625 Z M 21.921875 -4.015625 "/></g></g></g></g></g></g></g></g></svg>